{
.appVersion = "3343";
.formatVersion = 3;
axes = (
{
name = Weight;
tag = wght;
}
);
date = "2025-06-22 16:38:40 +0000";
familyName = Brodine;
fontMaster = (
{
id = "CD84BEE1-910F-4B48-AE00-856803910FFA";
metricValues = (
{
over = 16;
pos = 700;
},
{
over = 16;
pos = 650;
},
{
over = 16;
pos = 450;
},
{
over = -16;
},
{
over = -16;
pos = -200;
},
{
}
);
name = "semi-bold";
userData = {
"Letterink-NibData" = {
AngleInDegrees = 45;
MainAxisWidth = 30;
MinorAxisWidth = 15;
};
};
}
);
glyphs = (
{
glyphname = A;
lastChange = "2025-07-14 16:01:29 +0000";
layers = (
{
layerId = "CD84BEE1-910F-4B48-AE00-856803910FFA";
shapes = (
{
closed = 1;
nodes = (
(133,0,l),
(376,650,l),
(265,650,l),
(20,0,l)
);
},
{
closed = 1;
nodes = (
(378,650,l),
(267,650,l),
(527,0,l),
(632,0,l)
);
},
{
closed = 1;
nodes = (
(477,181,l),
(477,280,l),
(187,280,l),
(187,181,l)
);
}
);
width = 656;
}
);
unicode = 65;
},
{
glyphname = B;
lastChange = "2025-07-14 16:01:29 +0000";
layers = (
{
layerId = "CD84BEE1-910F-4B48-AE00-856803910FFA";
shapes = (
{
closed = 1;
nodes = (
(57,0,l),
(421,0,ls),
(528,0,o),
(626,74,o),
(626,201,cs),
(626,272,o),
(583,335,o),
(517,370,c),
(547,399,o),
(566,437,o),
(566,479,cs),
(566,577,o),
(496,650,o),
(361,650,cs),
(57,650,l)
);
},
{
closed = 1;
nodes = (
(169,299,l),
(409,299,ls),
(471,299,o),
(516,257,o),
(516,201,cs),
(516,132,o),
(471,99,o),
(409,99,cs),
(169,99,l)
);
},
{
closed = 1;
nodes = (
(169,551,l),
(361,551,ls),
(430,551,o),
(456,514,o),
(456,477,cs),
(456,436,o),
(431,399,o),
(361,398,c),
(169,398,l)
);
}
);
width = 657;
}
);
unicode = 66;
},
{
glyphname = C;
lastChange = "2025-07-14 16:01:29 +0000";
layers = (
{
layerId = "CD84BEE1-910F-4B48-AE00-856803910FFA";
shapes = (
{
closed = 1;
nodes = (
(510,125,o),
(448,87,o),
(345,87,cs),
(219,87,o),
(140,158,o),
(140,324,cs),
(140,490,o),
(219,561,o),
(345,561,cs),
(448,561,o),
(510,523,o),
(537,441,c),
(640,492,l),
(593,614,o),
(492,666,o),
(346,666,cs),
(160,666,o),
(29,567,o),
(29,324,cs),
(29,81,o),
(160,-18,o),
(346,-18,cs),
(492,-18,o),
(593,34,o),
(640,156,c),
(537,207,l)
);
}
);
width = 656;
}
);
unicode = 67;
},
{
glyphname = D;
lastChange = "2025-07-14 16:01:29 +0000";
layers = (
{
layerId = "CD84BEE1-910F-4B48-AE00-856803910FFA";
shapes = (
{
closed = 1;
nodes = (
(57,2,l),
(169,2,l),
(169,650,l),
(57,650,l)
);
},
{
closed = 1;
nodes = (
(326,555,ls),
(439,555,o),
(520,470,o),
(520,323,cs),
(520,171,o),
(439,95,o),
(326,95,cs),
(92,95,l),
(71,0,l),
(328,0,ls),
(488,0,o),
(631,102,o),
(631,323,cs),
(631,538,o),
(488,650,o),
(328,650,cs),
(71,650,l),
(92,555,l)
);
}
);
width = 656;
}
);
unicode = 68;
},
{
glyphname = E;
lastChange = "2025-07-11 00:40:51 +0000";
layers = (
{
layerId = "CD84BEE1-910F-4B48-AE00-856803910FFA";
shapes = (
{
closed = 1;
nodes = (
(57,0,l),
(467,0,l),
(467,99,l),
(169,99,l),
(169,288,l),
(330,288,l),
(330,387,l),
(169,387,l),
(169,551,l),
(467,551,l),
(467,650,l),
(57,650,l)
);
}
);
width = 496;
}
);
unicode = 69;
},
{
glyphname = F;
lastChange = "2025-07-11 00:41:43 +0000";
layers = (
{
layerId = "CD84BEE1-910F-4B48-AE00-856803910FFA";
shapes = (
{
closed = 1;
nodes = (
(57,0,l),
(169,0,l),
(169,260,l),
(350,260,l),
(350,359,l),
(169,359,l),
(169,551,l),
(467,551,l),
(467,650,l),
(57,650,l)
);
}
);
width = 496;
}
);
unicode = 70;
},
{
glyphname = G;
lastChange = "2025-07-14 16:01:29 +0000";
layers = (
{
layerId = "CD84BEE1-910F-4B48-AE00-856803910FFA";
shapes = (
{
closed = 1;
nodes = (
(488,-2,l),
(600,-2,l),
(600,347,l),
(488,347,l)
);
},
{
closed = 1;
nodes = (
(600,260,l),
(600,359,l),
(386,359,l),
(386,260,l)
);
},
{
closed = 1;
nodes = (
(488,132,o),
(420,77,o),
(331,77,cs),
(219,77,o),
(138,151,o),
(138,324,cs),
(138,497,o),
(219,571,o),
(331,571,cs),
(412,571,o),
(476,531,o),
(505,445,c),
(600,492,l),
(553,614,o),
(452,666,o),
(328,666,cs),
(160,666,o),
(29,567,o),
(29,324,cs),
(29,81,o),
(160,-17,o),
(328,-17,cs),
(459,-17,o),
(532,55,o),
(560,187,c),
(488,231,l)
);
}
);
width = 656;
}
);
unicode = 71;
},
{
glyphname = H;
lastChange = "2025-07-11 00:38:54 +0000";
layers = (
{
layerId = "CD84BEE1-910F-4B48-AE00-856803910FFA";
shapes = (
{
closed = 1;
nodes = (
(52,2,l),
(164,2,l),
(164,650,l),
(52,650,l)
);
},
{
closed = 1;
nodes = (
(492,2,l),
(604,2,l),
(604,650,l),
(492,650,l)
);
},
{
closed = 1;
nodes = (
(543,287,l),
(543,386,l),
(78,386,l),
(78,287,l)
);
}
);
width = 656;
}
);
unicode = 72;
},
{
glyphname = I;
lastChange = "2025-07-14 16:01:29 +0000";
layers = (
{
layerId = "CD84BEE1-910F-4B48-AE00-856803910FFA";
shapes = (
{
closed = 1;
nodes = (
(32,650,l),
(32,0,l),
(144,0,l),
(144,650,l)
);
}
);
width = 176;
}
);
unicode = 73;
},
{
glyphname = J;
lastChange = "2025-07-14 16:01:29 +0000";
layers = (
{
layerId = "CD84BEE1-910F-4B48-AE00-856803910FFA";
shapes = (
{
closed = 0;
nodes = (
(427,231,l),
(427,652,l)
);
},
{
closed = 1;
nodes = (
(427,652,l),
(51,652,l),
(51,553,l),
(315,553,l),
(315,234,ls),
(315,116,o),
(254,78,o),
(178,78,cs),
(139,78,o),
(102,101,o),
(86,115,c),
(34,33,l),
(74,1,o),
(125,-16,o),
(188,-16,cs),
(332,-16,o),
(427,48,o),
(427,231,cs)
);
}
);
width = 496;
}
);
unicode = 74;
},
{
glyphname = K;
lastChange = "2025-07-14 16:01:29 +0000";
layers = (
{
layerId = "CD84BEE1-910F-4B48-AE00-856803910FFA";
shapes = (
{
closed = 1;
nodes = (
(57,2,l),
(169,2,l),
(169,650,l),
(57,650,l)
);
},
{
closed = 1;
nodes = (
(326,425,l),
(207,425,l),
(475,0,l),
(594,0,l)
);
},
{
closed = 1;
nodes = (
(64,236,l),
(162,236,l),
(543,650,l),
(410,650,l),
(64,273,l)
);
}
);
width = 608;
}
);
unicode = 75;
},
{
glyphname = L;
lastChange = "2025-07-11 00:43:06 +0000";
layers = (
{
layerId = "CD84BEE1-910F-4B48-AE00-856803910FFA";
shapes = (
{
closed = 1;
nodes = (
(57,2,l),
(61,2,l),
(61,0,l),
(460,0,l),
(460,99,l),
(169,99,l),
(169,650,l),
(57,650,l)
);
}
);
width = 496;
}
);
unicode = 76;
},
{
glyphname = M;
lastChange = "2025-07-14 00:25:32 +0000";
layers = (
{
layerId = "CD84BEE1-910F-4B48-AE00-856803910FFA";
shapes = (
{
closed = 1;
nodes = (
(169,1,l),
(169,501,l),
(134,501,l),
(361,0,l),
(455,0,l),
(680,496,l),
(647,496,l),
(647,1,l),
(759,1,l),
(759,650,l),
(654,650,l),
(630,648,l),
(386,112,l),
(430,112,l),
(186,648,l),
(162,650,l),
(57,650,l),
(57,1,l)
);
}
);
width = 816;
}
);
unicode = 77;
},
{
glyphname = N;
lastChange = "2025-07-14 16:01:29 +0000";
layers = (
{
layerId = "CD84BEE1-910F-4B48-AE00-856803910FFA";
shapes = (
{
closed = 1;
nodes = (
(57,0,l),
(169,0,l),
(169,461,l),
(487,0,l),
(599,0,l),
(599,650,l),
(487,650,l),
(487,194,l),
(169,650,l),
(57,650,l)
);
}
);
width = 656;
}
);
unicode = 78;
},
{
glyphname = O;
lastChange = "2025-07-14 16:01:29 +0000";
layers = (
{
layerId = "CD84BEE1-910F-4B48-AE00-856803910FFA";
shapes = (
{
closed = 1;
nodes = (
(140,496,o),
(222,570,o),
(328,571,cs),
(434,570,o),
(516,496,o),
(516,325,cs),
(516,154,o),
(434,80,o),
(328,79,cs),
(222,80,o),
(140,154,o),
(140,325,cs)
);
},
{
closed = 1;
nodes = (
(29,83,o),
(169,-16,o),
(328,-16,cs),
(488,-16,o),
(627,83,o),
(627,325,cs),
(627,567,o),
(488,666,o),
(328,666,cs),
(169,666,o),
(29,567,o),
(29,325,cs)
);
}
);
width = 656;
}
);
unicode = 79;
},
{
glyphname = P;
lastChange = "2025-07-14 16:01:29 +0000";
layers = (
{
layerId = "CD84BEE1-910F-4B48-AE00-856803910FFA";
shapes = (
{
closed = 1;
nodes = (
(169,0,l),
(169,650,l),
(57,650,l),
(57,0,l)
);
},
{
closed = 1;
nodes = (
(71,206,l),
(258,206,ls),
(369,206,o),
(482,282,o),
(482,429,cs),
(482,576,o),
(369,650,o),
(258,650,cs),
(71,650,l),
(71,551,l),
(258,551,ls),
(313,551,o),
(371,500,o),
(371,429,cs),
(371,358,o),
(313,305,o),
(258,305,cs),
(71,305,l)
);
}
);
width = 496;
}
);
unicode = 80;
},
{
glyphname = Q;
lastChange = "2025-07-14 16:01:29 +0000";
layers = (
{
layerId = "CD84BEE1-910F-4B48-AE00-856803910FFA";
shapes = (
{
closed = 1;
nodes = (
(140,496,o),
(222,570,o),
(328,571,cs),
(434,570,o),
(516,496,o),
(516,325,cs),
(516,154,o),
(434,80,o),
(328,79,cs),
(222,80,o),
(140,154,o),
(140,325,cs)
);
},
{
closed = 1;
nodes = (
(29,83,o),
(169,-16,o),
(328,-16,cs),
(488,-16,o),
(627,83,o),
(627,325,cs),
(627,567,o),
(488,666,o),
(328,666,cs),
(169,666,o),
(29,567,o),
(29,325,cs)
);
},
{
closed = 1;
nodes = (
(537,-57,l),
(618,11,l),
(548,95,l),
(468,27,l)
);
}
);
width = 656;
}
);
unicode = 81;
},
{
glyphname = R;
lastChange = "2025-07-14 16:01:29 +0000";
layers = (
{
layerId = "CD84BEE1-910F-4B48-AE00-856803910FFA";
shapes = (
{
closed = 1;
nodes = (
(198,298,l),
(364,0,l),
(481,0,l),
(315,298,l)
);
},
{
closed = 1;
nodes = (
(169,0,l),
(169,650,l),
(57,650,l),
(57,0,l)
);
},
{
closed = 1;
nodes = (
(71,206,l),
(258,206,ls),
(369,206,o),
(482,282,o),
(482,429,cs),
(482,576,o),
(369,650,o),
(258,650,cs),
(71,650,l),
(71,551,l),
(258,551,ls),
(313,551,o),
(371,500,o),
(371,429,cs),
(371,358,o),
(313,305,o),
(258,305,cs),
(71,305,l)
);
}
);
width = 496;
}
);
unicode = 82;
},
{
glyphname = S;
lastChange = "2025-07-14 16:01:29 +0000";
layers = (
{
layerId = "CD84BEE1-910F-4B48-AE00-856803910FFA";
shapes = (
{
closed = 1;
nodes = (
(161,665,o),
(54,616,o),
(54,481,cs),
(54,386,o),
(135,331,o),
(187,309,cs),
(248,284,ls),
(298,262,o),
(364,244,o),
(364,176,cs),
(364,126,o),
(332,84,o),
(245,84,cs),
(190,84,o),
(151,100,o),
(112,139,c),
(47,61,l),
(104,14,o),
(172,-15,o),
(259,-15,cs),
(361,-15,o),
(478,51,o),
(478,181,cs),
(478,285,o),
(414,330,o),
(316,372,cs),
(256,397,ls),
(190,425,o),
(168,452,o),
(168,487,cs),
(168,545,o),
(208,566,o),
(256,566,cs),
(302,566,o),
(350,557,o),
(386,527,c),
(431,608,l),
(393,640,o),
(335,665,o),
(248,665,cs)
);
}
);
width = 496;
}
);
unicode = 83;
},
{
glyphname = T;
lastChange = "2025-07-14 16:01:29 +0000";
layers = (
{
layerId = "CD84BEE1-910F-4B48-AE00-856803910FFA";
shapes = (
{
closed = 1;
nodes = (
(192,2,l),
(304,2,l),
(304,650,l),
(192,650,l)
);
},
{
closed = 0;
nodes = (
(475,650,l),
(21,650,l)
);
},
{
closed = 1;
nodes = (
(21,650,l),
(21,551,l),
(475,551,l),
(475,650,l)
);
}
);
width = 496;
}
);
unicode = 84;
},
{
glyphname = U;
lastChange = "2025-07-14 16:01:29 +0000";
layers = (
{
layerId = "CD84BEE1-910F-4B48-AE00-856803910FFA";
shapes = (
{
closed = 1;
nodes = (
(489,650,l),
(601,650,l),
(601,253,ls),
(601,76,o),
(506,-18,o),
(328,-18,cs),
(150,-18,o),
(55,76,o),
(55,253,cs),
(55,650,l),
(167,650,l),
(167,237,ls),
(167,133,o),
(223,79,o),
(328,79,cs),
(433,79,o),
(489,133,o),
(489,237,cs)
);
}
);
width = 656;
}
);
unicode = 85;
},
{
glyphname = V;
lastChange = "2025-07-14 16:01:29 +0000";
layers = (
{
layerId = "CD84BEE1-910F-4B48-AE00-856803910FFA";
shapes = (
{
closed = 1;
nodes = (
(286,0,l),
(370,0,l),
(635,650,l),
(528,650,l),
(299,98,l),
(357,98,l),
(134,650,l),
(21,650,l)
);
}
);
width = 656;
}
);
unicode = 86;
},
{
glyphname = W;
lastChange = "2025-07-14 00:35:58 +0000";
layers = (
{
layerId = "CD84BEE1-910F-4B48-AE00-856803910FFA";
shapes = (
{
closed = 1;
nodes = (
(186,0,l),
(277,0,l),
(421,522,l),
(385,521,l),
(536,0,l),
(627,0,l),
(807,650,l),
(704,650,l),
(558,133,l),
(604,133,l),
(454,650,l),
(351,650,l),
(209,133,l),
(257,133,l),
(111,650,l),
(8,650,l)
);
}
);
width = 816;
}
);
unicode = 87;
},
{
glyphname = X;
lastChange = "2025-07-14 16:01:29 +0000";
layers = (
{
layerId = "CD84BEE1-910F-4B48-AE00-856803910FFA";
shapes = (
{
closed = 1;
nodes = (
(159,650,l),
(49,650,l),
(360,1,l),
(469,1,l)
);
},
{
closed = 1;
nodes = (
(285,299,l),
(453,650,l),
(344,650,l),
(228,408,l)
);
},
{
closed = 1;
nodes = (
(222,408,l),
(27,1,l),
(136,1,l),
(279,299,l)
);
}
);
width = 496;
}
);
unicode = 88;
},
{
glyphname = Y;
lastChange = "2025-07-14 16:01:29 +0000";
layers = (
{
layerId = "CD84BEE1-910F-4B48-AE00-856803910FFA";
shapes = (
{
closed = 1;
nodes = (
(192,303,l),
(192,0,l),
(304,0,l),
(304,303,l),
(479,650,l),
(365,650,l),
(229,381,l),
(268,381,l),
(131,650,l),
(17,650,l)
);
}
);
width = 496;
}
);
unicode = 89;
},
{
glyphname = Z;
lastChange = "2025-07-14 16:01:29 +0000";
layers = (
{
layerId = "CD84BEE1-910F-4B48-AE00-856803910FFA";
shapes = (
{
closed = 1;
nodes = (
(31,99,l),
(164,99,l),
(463,551,l),
(330,551,l)
);
},
{
closed = 1;
nodes = (
(31,99,l),
(31,0,l),
(465,0,l),
(465,99,l)
);
},
{
closed = 1;
nodes = (
(31,650,l),
(31,551,l),
(465,551,l),
(465,650,l)
);
}
);
width = 496;
}
);
unicode = 90;
},
{
glyphname = a;
lastChange = "2025-07-14 16:01:29 +0000";
layers = (
{
layerId = "CD84BEE1-910F-4B48-AE00-856803910FFA";
shapes = (
{
closed = 1;
nodes = (
(197,288,ls),
(60,288,o),
(29,195,o),
(29,122,cs),
(29,62,o),
(81,-17,o),
(191,-17,cs),
(256,-17,o),
(333,11,o),
(350,52,c),
(341,155,l),
(327,85,o),
(247,64,o),
(211,64,cs),
(162,64,o),
(126,82,o),
(126,132,cs),
(126,178,o),
(152,202,o),
(220,202,c),
(341,202,l),
(341,288,l)
);
},
{
closed = 1;
nodes = (
(162,343,l),
(189,373,o),
(211,388,o),
(250,388,cs),
(285,388,o),
(341,375,o),
(341,314,cs),
(340,56,l),
(350,52,l),
(360,0,l),
(446,0,l),
(447,314,ls),
(447,430,o),
(359,464,o),
(256,464,cs),
(182,464,o),
(120,433,o),
(91,398,c)
);
}
);
width = 496;
}
);
unicode = 97;
},
{
glyphname = b;
lastChange = "2025-07-14 16:01:29 +0000";
layers = (
{
layerId = "CD84BEE1-910F-4B48-AE00-856803910FFA";
shapes = (
{
closed = 1;
nodes = (
(49,680,l),
(49,-1,l),
(135,-1,l),
(145,51,l),
(155,45,l),
(155,680,l)
);
},
{
closed = 1;
nodes = (
(155,225,l),
(155,341,o),
(190,379,o),
(260,379,cs),
(315,379,o),
(371,341,o),
(371,225,cs),
(371,118,o),
(315,72,o),
(260,72,cs),
(190,72,o),
(155,118,o),
(155,225,c),
(104,215,l),
(104,48,o),
(171,-14,o),
(270,-14,cs),
(373,-14,o),
(467,58,o),
(467,225,cs),
(467,402,o),
(373,465,o),
(270,465,cs),
(191,465,o),
(99,425,o),
(99,265,c)
);
}
);
width = 496;
}
);
unicode = 98;
},
{
glyphname = c;
lastChange = "2025-07-14 16:01:29 +0000";
layers = (
{
layerId = "CD84BEE1-910F-4B48-AE00-856803910FFA";
shapes = (
{
closed = 1;
nodes = (
(184,379,o),
(124,329,o),
(124,225,cs),
(124,121,o),
(183,71,o),
(276,71,cs),
(335,71,o),
(381,102,o),
(400,130,c),
(476,86,l),
(449,24,o),
(362,-15,o),
(278,-15,cs),
(131,-15,o),
(29,57,o),
(29,225,cs),
(29,393,o),
(132,465,o),
(278,465,cs),
(362,465,o),
(443,426,o),
(476,364,c),
(400,320,l),
(383,350,o),
(335,379,o),
(276,379,cs)
);
}
);
width = 496;
}
);
unicode = 99;
},
{
glyphname = d;
lastChange = "2025-07-14 16:01:29 +0000";
layers = (
{
layerId = "CD84BEE1-910F-4B48-AE00-856803910FFA";
shapes = (
{
closed = 1;
nodes = (
(341,45,l),
(351,51,l),
(361,-1,l),
(447,-1,l),
(447,680,l),
(341,680,l)
);
},
{
closed = 1;
nodes = (
(397,425,o),
(305,465,o),
(226,465,cs),
(123,465,o),
(29,402,o),
(29,225,cs),
(29,58,o),
(123,-14,o),
(226,-14,cs),
(325,-14,o),
(392,48,o),
(392,215,c),
(341,225,l),
(341,118,o),
(306,72,o),
(236,72,cs),
(181,72,o),
(125,118,o),
(125,225,cs),
(125,341,o),
(181,379,o),
(236,379,cs),
(306,379,o),
(341,341,o),
(341,225,c),
(397,265,l)
);
}
);
width = 496;
}
);
unicode = 100;
},
{
glyphname = e;
lastChange = "2025-07-14 16:01:29 +0000";
layers = (
{
layerId = "CD84BEE1-910F-4B48-AE00-856803910FFA";
shapes = (
{
closed = 1;
nodes = (
(66,188,l),
(435,188,l),
(416,270,l),
(66,270,l)
);
},
{
closed = 1;
nodes = (
(369,125,l),
(351,97,o),
(324,71,o),
(256,71,cs),
(181,71,o),
(123,111,o),
(123,226,cs),
(123,350,o),
(181,381,o),
(248,381,cs),
(315,381,o),
(373,350,o),
(373,226,cs),
(373,214,o),
(372,199,o),
(369,188,c),
(464,188,l),
(466,201,o),
(467,212,o),
(467,226,cs),
(467,413,o),
(363,465,o),
(248,465,cs),
(133,465,o),
(29,415,o),
(29,226,cs),
(29,49,o),
(133,-13,o),
(258,-13,cs),
(383,-13,o),
(422,41,o),
(446,76,c)
);
}
);
width = 496;
}
);
unicode = 101;
},
{
glyphname = f;
lastChange = "2025-07-14 16:01:29 +0000";
layers = (
{
layerId = "CD84BEE1-910F-4B48-AE00-856803910FFA";
shapes = (
{
closed = 1;
nodes = (
(141,652,o),
(107,622,o),
(107,545,cs),
(107,0,l),
(213,0,l),
(213,525,ls),
(213,551,o),
(223,566,o),
(256,566,cs),
(319,566,l),
(319,652,l),
(233,652,ls)
);
},
{
closed = 1;
nodes = (
(319,360,l),
(319,450,l),
(21,450,l),
(21,360,l)
);
}
);
width = 336;
}
);
unicode = 102;
},
{
glyphname = g;
lastChange = "2025-07-14 16:01:29 +0000";
layers = (
{
layerId = "CD84BEE1-910F-4B48-AE00-856803910FFA";
shapes = (
{
closed = 1;
nodes = (
(341,-79,o),
(302,-126,o),
(233,-126,c),
(192,-126,o),
(165,-100,o),
(143,-70,c),
(64,-123,l),
(102,-180,o),
(166,-214,o),
(241,-214,cs),
(354,-214,o),
(451,-127,o),
(451,0,c),
(341,0,l)
);
},
{
closed = 1;
nodes = (
(451,0,l),
(451,453,l),
(361,453,l),
(351,401,l),
(341,407,l),
(341,0,l)
);
},
{
closed = 1;
nodes = (
(341,227,l),
(341,112,o),
(293,73,o),
(235,73,cs),
(181,73,o),
(124,111,o),
(124,227,cs),
(124,334,o),
(181,380,o),
(235,380,cs),
(293,380,o),
(341,333,o),
(341,227,c),
(400,237,l),
(400,404,o),
(325,466,o),
(226,466,cs),
(119,466,o),
(29,394,o),
(29,227,cs),
(29,50,o),
(119,-13,o),
(226,-13,cs),
(305,-13,o),
(397,27,o),
(397,187,c)
);
}
);
width = 496;
}
);
unicode = 103;
},
{
glyphname = h;
lastChange = "2025-07-14 16:01:29 +0000";
layers = (
{
layerId = "CD84BEE1-910F-4B48-AE00-856803910FFA";
shapes = (
{
closed = 1;
nodes = (
(341,0,l),
(447,0,l),
(447,312,ls),
(447,432,o),
(373,466,o),
(282,466,cs),
(129,466,o),
(87,333,o),
(80,213,c),
(151,213,l),
(152,316,o),
(167,380,o),
(255,380,cs),
(309,380,o),
(341,364,o),
(341,292,cs)
);
},
{
closed = 1;
nodes = (
(151,700,l),
(45,700,l),
(45,0,l),
(151,0,l)
);
}
);
width = 496;
}
);
unicode = 104;
},
{
glyphname = i;
lastChange = "2025-07-14 16:01:29 +0000";
layers = (
{
layerId = "CD84BEE1-910F-4B48-AE00-856803910FFA";
shapes = (
{
closed = 1;
nodes = (
(120,501,o),
(143,524,o),
(143,558,cs),
(143,591,o),
(120,613,o),
(87,613,cs),
(53,613,o),
(31,591,o),
(31,558,cs),
(31,524,o),
(53,501,o),
(87,501,cs)
);
},
{
closed = 1;
nodes = (
(35,450,l),
(35,0,l),
(141,0,l),
(141,450,l)
);
}
);
width = 176;
}
);
unicode = 105;
},
{
glyphname = j;
lastChange = "2025-07-14 16:01:29 +0000";
layers = (
{
layerId = "CD84BEE1-910F-4B48-AE00-856803910FFA";
shapes = (
{
closed = 1;
nodes = (
(-135,-159,l),
(-100,-198,o),
(-51,-216,o),
(-5,-216,cs),
(94,-216,o),
(141,-152,o),
(141,-45,cs),
(141,450,l),
(35,450,l),
(35,-45,ls),
(35,-88,o),
(21,-116,o),
(-12,-116,cs),
(-37,-116,o),
(-59,-105,o),
(-67,-90,c)
);
},
{
closed = 1;
nodes = (
(120,501,o),
(143,524,o),
(143,558,cs),
(143,591,o),
(120,613,o),
(87,613,cs),
(53,613,o),
(31,591,o),
(31,558,cs),
(31,524,o),
(53,501,o),
(87,501,cs)
);
}
);
width = 176;
}
);
unicode = 106;
},
{
glyphname = k;
lastChange = "2025-07-10 01:44:37 +0000";
layers = (
{
layerId = "CD84BEE1-910F-4B48-AE00-856803910FFA";
shapes = (
{
closed = 1;
nodes = (
(49,0,l),
(155,0,l),
(155,700,l),
(49,700,l)
);
},
{
closed = 1;
nodes = (
(312,321,l),
(209,321,l),
(371,0,l),
(474,0,l)
);
},
{
closed = 1;
nodes = (
(53,118,l),
(145,118,l),
(446,450,l),
(320,450,l),
(53,155,l)
);
}
);
width = 496;
}
);
unicode = 107;
},
{
glyphname = l;
lastChange = "2025-07-08 23:19:41 +0000";
layers = (
{
layerId = "CD84BEE1-910F-4B48-AE00-856803910FFA";
shapes = (
{
closed = 1;
nodes = (
(35,700,l),
(35,0,l),
(141,0,l),
(141,700,l)
);
}
);
width = 176;
}
);
unicode = 108;
},
{
glyphname = m;
lastChange = "2025-07-14 16:01:29 +0000";
layers = (
{
layerId = "CD84BEE1-910F-4B48-AE00-856803910FFA";
shapes = (
{
closed = 1;
nodes = (
(155,394,l),
(145,398,l),
(135,450,l),
(49,450,l),
(49,0,l),
(155,0,l)
);
},
{
closed = 1;
nodes = (
(356,0,l),
(463,0,l),
(463,306,ls),
(463,432,o),
(371,466,o),
(280,466,cs),
(146,466,o),
(92,323,o),
(86,213,c),
(155,213,l),
(156,316,o),
(175,380,o),
(259,380,cs),
(308,380,o),
(356,364,o),
(356,286,cs)
);
},
{
closed = 1;
nodes = (
(663,0,l),
(769,0,l),
(769,306,ls),
(769,432,o),
(686,466,o),
(600,466,cs),
(456,466,o),
(391,323,o),
(385,213,c),
(462,213,l),
(463,316,o),
(485,380,o),
(574,380,cs),
(621,380,o),
(663,364,o),
(663,286,cs)
);
}
);
width = 816;
}
);
unicode = 109;
},
{
glyphname = n;
lastChange = "2025-07-14 16:01:29 +0000";
layers = (
{
layerId = "CD84BEE1-910F-4B48-AE00-856803910FFA";
shapes = (
{
closed = 1;
nodes = (
(341,0,l),
(447,0,l),
(447,306,ls),
(447,432,o),
(367,466,o),
(282,466,cs),
(142,466,o),
(92,323,o),
(86,213,c),
(155,213,l),
(156,316,o),
(171,380,o),
(255,380,cs),
(303,380,o),
(341,364,o),
(341,286,cs)
);
},
{
closed = 1;
nodes = (
(155,394,l),
(145,398,l),
(135,450,l),
(49,450,l),
(49,0,l),
(155,0,l)
);
}
);
width = 496;
}
);
unicode = 110;
},
{
glyphname = o;
lastChange = "2025-07-14 16:01:29 +0000";
layers = (
{
layerId = "CD84BEE1-910F-4B48-AE00-856803910FFA";
shapes = (
{
closed = 1;
nodes = (
(359,-13,o),
(467,59,o),
(467,226,cs),
(467,393,o),
(359,465,o),
(248,465,cs),
(137,465,o),
(29,395,o),
(29,226,cs),
(29,59,o),
(137,-13,o),
(248,-13,cs)
);
},
{
closed = 1;
nodes = (
(185,75,o),
(125,122,o),
(125,226,cs),
(125,330,o),
(185,377,o),
(248,377,cs),
(311,377,o),
(371,330,o),
(371,226,cs),
(371,122,o),
(311,75,o),
(248,75,cs)
);
}
);
width = 496;
}
);
unicode = 111;
},
{
glyphname = p;
lastChange = "2025-07-14 16:01:29 +0000";
layers = (
{
layerId = "CD84BEE1-910F-4B48-AE00-856803910FFA";
shapes = (
{
closed = 1;
nodes = (
(155,407,l),
(145,401,l),
(135,453,l),
(49,453,l),
(49,-200,l),
(155,-200,l)
);
},
{
closed = 1;
nodes = (
(99,27,o),
(191,-13,o),
(270,-13,cs),
(373,-13,o),
(467,50,o),
(467,227,cs),
(467,394,o),
(373,466,o),
(270,466,cs),
(171,466,o),
(104,404,o),
(104,237,c),
(155,227,l),
(155,334,o),
(202,380,o),
(260,380,cs),
(315,380,o),
(371,334,o),
(371,227,cs),
(371,111,o),
(315,73,o),
(260,73,cs),
(202,73,o),
(155,111,o),
(155,227,c),
(99,187,l)
);
}
);
width = 496;
}
);
unicode = 112;
},
{
glyphname = q;
lastChange = "2025-07-14 16:01:29 +0000";
layers = (
{
layerId = "CD84BEE1-910F-4B48-AE00-856803910FFA";
shapes = (
{
closed = 1;
nodes = (
(447,-200,l),
(447,453,l),
(361,453,l),
(351,401,l),
(341,407,l),
(341,-200,l)
);
},
{
closed = 1;
nodes = (
(341,227,l),
(341,111,o),
(293,73,o),
(235,73,cs),
(181,73,o),
(124,111,o),
(124,227,cs),
(124,334,o),
(181,380,o),
(235,380,cs),
(293,380,o),
(341,334,o),
(341,227,c),
(392,237,l),
(392,404,o),
(325,466,o),
(226,466,cs),
(123,466,o),
(29,394,o),
(29,227,cs),
(29,50,o),
(123,-13,o),
(226,-13,cs),
(305,-13,o),
(397,27,o),
(397,187,c)
);
}
);
width = 496;
}
);
unicode = 113;
},
{
glyphname = r;
lastChange = "2025-07-14 16:01:29 +0000";
layers = (
{
layerId = "CD84BEE1-910F-4B48-AE00-856803910FFA";
shapes = (
{
closed = 1;
nodes = (
(326,360,l),
(326,450,l),
(278,450,l),
(156,450,o),
(91,377,o),
(90,224,c),
(142,224,l),
(142,336,o),
(220,360,o),
(278,360,c)
);
},
{
closed = 1;
nodes = (
(149,393,l),
(139,397,l),
(129,449,l),
(43,449,l),
(43,0,l),
(149,0,l)
);
}
);
width = 336;
}
);
unicode = 114;
},
{
glyphname = s;
lastChange = "2025-07-14 16:01:29 +0000";
layers = (
{
layerId = "CD84BEE1-910F-4B48-AE00-856803910FFA";
shapes = (
{
closed = 1;
nodes = (
(99,450,o),
(40,422,o),
(40,331,cs),
(40,262,o),
(74,220,o),
(125,193,cs),
(164,170,o),
(224,165,o),
(224,118,cs),
(224,79,o),
(197,70,o),
(165,71,cs),
(121,72,o),
(83,92,o),
(57,110,c),
(22,28,l),
(61,0,o),
(95,-15,o),
(168,-15,cs),
(239,-15,o),
(322,13,o),
(322,118,cs),
(322,226,o),
(235,248,o),
(181,271,cs),
(148,286,o),
(133,295,o),
(133,326,cs),
(133,345,o),
(142,361,o),
(180,361,cs),
(199,361,o),
(241,360,o),
(304,360,c),
(304,450,l),
(270,450,o),
(222,450,o),
(172,450,cs)
);
}
);
width = 336;
}
);
unicode = 115;
},
{
glyphname = t;
lastChange = "2025-07-14 16:01:29 +0000";
layers = (
{
layerId = "CD84BEE1-910F-4B48-AE00-856803910FFA";
shapes = (
{
closed = 1;
nodes = (
(319,0,l),
(319,87,l),
(256,87,ls),
(223,87,o),
(213,101,o),
(213,128,cs),
(213,589,l),
(107,589,l),
(107,107,ls),
(107,30,o),
(141,0,o),
(233,0,cs)
);
},
{
closed = 1;
nodes = (
(319,360,l),
(319,450,l),
(21,450,l),
(21,360,l)
);
}
);
width = 336;
}
);
unicode = 116;
},
{
glyphname = u;
lastChange = "2025-07-14 16:01:29 +0000";
layers = (
{
layerId = "CD84BEE1-910F-4B48-AE00-856803910FFA";
shapes = (
{
closed = 1;
nodes = (
(155,450,l),
(49,450,l),
(49,144,ls),
(49,18,o),
(129,-16,o),
(214,-16,cs),
(354,-16,o),
(404,127,o),
(410,237,c),
(341,237,l),
(340,134,o),
(325,70,o),
(241,70,cs),
(193,70,o),
(155,86,o),
(155,164,cs)
);
},
{
closed = 1;
nodes = (
(341,56,l),
(351,52,l),
(361,0,l),
(447,0,l),
(447,450,l),
(341,450,l)
);
}
);
width = 496;
}
);
unicode = 117;
},
{
glyphname = v;
lastChange = "2025-07-11 00:29:26 +0000";
layers = (
{
layerId = "CD84BEE1-910F-4B48-AE00-856803910FFA";
shapes = (
{
closed = 1;
nodes = (
(202,1,l),
(294,1,l),
(469,450,l),
(366,450,l),
(221,70,l),
(275,70,l),
(131,450,l),
(27,450,l)
);
}
);
width = 496;
}
);
unicode = 118;
},
{
glyphname = w;
lastChange = "2025-07-14 16:01:29 +0000";
layers = (
{
layerId = "CD84BEE1-910F-4B48-AE00-856803910FFA";
shapes = (
{
closed = 1;
nodes = (
(143,1,l),
(240,1,l),
(339,353,l),
(302,353,l),
(405,1,l),
(501,1,l),
(630,450,l),
(534,450,l),
(439,117,l),
(468,117,l),
(371,450,l),
(271,450,l),
(178,117,l),
(208,117,l),
(122,450,l),
(26,450,l)
);
}
);
width = 656;
}
);
unicode = 119;
},
{
glyphname = x;
lastChange = "2025-07-14 16:01:29 +0000";
layers = (
{
layerId = "CD84BEE1-910F-4B48-AE00-856803910FFA";
shapes = (
{
closed = 1;
nodes = (
(348,1,l),
(461,1,l),
(148,450,l),
(35,450,l)
);
},
{
closed = 1;
nodes = (
(148,0,l),
(276,197,l),
(215,277,l),
(34,0,l)
);
},
{
closed = 1;
nodes = (
(284,197,l),
(447,450,l),
(333,450,l),
(224,277,l)
);
}
);
width = 496;
}
);
unicode = 120;
},
{
glyphname = y;
lastChange = "2025-07-14 16:01:29 +0000";
layers = (
{
layerId = "CD84BEE1-910F-4B48-AE00-856803910FFA";
shapes = (
{
closed = 1;
nodes = (
(206,23,l),
(205,-20,l),
(32,451,l),
(137,451,l),
(271,79,l),
(229,79,l),
(360,451,l),
(467,451,l),
(256,-104,ls),
(235,-160,o),
(194,-199,o),
(123,-199,cs),
(70,-199,o),
(71,-198,o),
(23,-198,c),
(23,-110,l),
(23,-112,o),
(76,-110,o),
(108,-110,cs),
(144,-110,o),
(161,-90,o),
(173,-60,cs)
);
}
);
width = 496;
}
);
unicode = 121;
},
{
glyphname = z;
lastChange = "2025-07-14 16:01:29 +0000";
layers = (
{
layerId = "CD84BEE1-910F-4B48-AE00-856803910FFA";
shapes = (
{
closed = 1;
nodes = (
(21,90,l),
(133,90,l),
(315,360,l),
(203,360,l)
);
},
{
closed = 1;
nodes = (
(21,90,l),
(21,0,l),
(315,0,l),
(315,90,l)
);
},
{
closed = 1;
nodes = (
(21,450,l),
(21,360,l),
(315,360,l),
(315,450,l)
);
}
);
width = 336;
}
);
unicode = 122;
},
{
glyphname = v.001;
lastChange = "2025-07-08 23:17:00 +0000";
layers = (
{
layerId = "CD84BEE1-910F-4B48-AE00-856803910FFA";
shapes = (
{
closed = 1;
nodes = (
(202,1,l),
(294,1,l),
(469,450,l),
(366,450,l),
(221,70,l),
(275,70,l),
(131,450,l),
(27,450,l)
);
}
);
width = 496;
}
);
},
{
glyphname = period;
lastChange = "2025-07-08 19:07:24 +0000";
layers = (
{
layerId = "CD84BEE1-910F-4B48-AE00-856803910FFA";
shapes = (
{
closed = 1;
nodes = (
(130,-16,o),
(157,11,o),
(157,51,cs),
(157,91,o),
(130,118,o),
(90,118,cs),
(50,118,o),
(23,91,o),
(23,51,cs),
(23,11,o),
(50,-16,o),
(90,-16,cs)
);
}
);
width = 180;
}
);
unicode = 46;
},
